<svg width="28" height="25" viewBox="0 0 28 25" fill="none" xmlns="http://www.w3.org/2000/svg">
<g clip-path="url(#clip0_2_1344)">
<path d="M9.56692 12.4461C9.56754 13.0179 9.11332 13.4544 8.53675 13.455C8.1055 13.4554 7.78649 13.212 7.786 12.7527C7.78539 12.1808 8.23021 11.7209 8.80208 11.7203C9.23802 11.7198 9.56643 11.9867 9.56692 12.4461ZM4.60511 10.1779L4.3848 10.1782C4.31449 10.1782 4.24423 10.2252 4.23494 10.3049L4.03472 11.5567L4.41908 11.5422C4.9347 11.5416 5.33306 11.4709 5.42618 10.8755C5.53331 10.2473 5.1348 10.1774 4.60511 10.1779ZM17.9176 10.1637L17.7067 10.1639C17.6223 10.164 17.5661 10.2109 17.5568 10.2906L17.3613 11.5424L17.7363 11.5279C18.3456 11.5273 18.7674 11.3862 18.7666 10.6831C18.7614 10.1862 18.316 10.1632 17.9176 10.1637ZM27.8251 4.07336L27.8428 20.5734C27.8442 21.8155 26.8374 22.8244 25.5952 22.8258L3.09526 22.8499C1.85307 22.8512 0.844177 21.8445 0.842845 20.6023L0.825165 4.10229C0.823834 2.86011 1.83057 1.85122 3.07275 1.84988L25.5727 1.82577C26.8149 1.82444 27.8238 2.83118 27.8251 4.07336ZM6.84602 10.4427C6.84497 9.45835 6.08524 9.13103 5.21806 9.13196L3.34306 9.13397C3.22587 9.1341 3.10878 9.22797 3.09954 9.35455L2.33592 14.1413C2.32196 14.2351 2.39237 14.3287 2.48612 14.3286L3.37675 14.3277C3.50331 14.3276 3.62035 14.1915 3.63427 14.0602L3.84388 12.8131C3.89039 12.4756 4.46239 12.5922 4.68739 12.5919C6.02801 12.5905 6.84747 11.7927 6.84602 10.4427ZM10.7933 10.851L9.90271 10.8519C9.72459 10.8521 9.71549 11.11 9.70625 11.2365C9.43395 10.8384 9.04013 10.7685 8.59481 10.769C7.44638 10.7702 6.57089 11.779 6.57208 12.8899C6.57306 13.804 7.14558 14.3987 8.05964 14.3977C8.48151 14.3972 9.00627 14.167 9.30123 13.8385C9.27787 13.9089 9.25459 14.0589 9.25466 14.1292C9.25478 14.237 9.30174 14.3167 9.40486 14.3165L10.2111 14.3157C10.3377 14.3155 10.4453 14.1795 10.4686 14.0482L10.9435 11.0336C10.9575 10.9446 10.8871 10.8509 10.7933 10.851ZM12.6967 15.438L15.678 11.0942C15.7014 11.0707 15.7014 11.0473 15.7013 11.0145C15.7012 10.9348 15.6308 10.8505 15.5512 10.8506L14.6512 10.8515C14.5715 10.8516 14.4871 10.8986 14.4403 10.969L13.2001 12.7984L12.6826 11.0412C12.645 10.9381 12.5418 10.8538 12.4246 10.8539L11.548 10.8549C11.4683 10.855 11.3981 10.9394 11.3982 11.0191C11.3983 11.0753 12.3151 13.6806 12.3951 13.929C12.2687 14.1072 11.4356 15.2706 11.4357 15.4112C11.4358 15.4956 11.5062 15.5612 11.5859 15.5611L12.4859 15.5601C12.5703 15.5553 12.6499 15.5084 12.6967 15.438ZM20.1585 10.4285C20.1575 9.44408 19.3977 9.11677 18.5305 9.1177L16.6696 9.11969C16.543 9.11983 16.426 9.2137 16.412 9.34028L15.6578 14.1223C15.6485 14.2161 15.7189 14.3098 15.808 14.3097L16.7689 14.3087C16.8627 14.3086 16.9329 14.2382 16.9563 14.1585L17.1657 12.7989C17.2123 12.4613 17.7843 12.5779 18.0093 12.5776C19.3405 12.5762 20.16 11.7785 20.1585 10.4285ZM24.1058 10.8367L23.2152 10.8377C23.0371 10.8379 23.028 11.0957 23.0141 11.2223C22.7558 10.8241 22.3573 10.7542 21.9026 10.7547C20.7542 10.7559 19.8787 11.7647 19.8799 12.8756C19.8809 13.7897 20.4534 14.3844 21.3674 14.3834C21.8034 14.3829 22.3281 14.1527 22.609 13.8243C22.595 13.8946 22.5624 14.0446 22.5625 14.1149C22.5626 14.2228 22.6095 14.3024 22.7127 14.3023L23.5236 14.3014C23.6502 14.3013 23.7578 14.1652 23.7811 14.034L24.256 11.0194C24.27 10.9303 24.1996 10.8366 24.1058 10.8367ZM26.3307 9.2734C26.3306 9.17965 26.2602 9.10942 26.1805 9.1095L25.3134 9.11043C25.243 9.11051 25.1728 9.16683 25.1635 9.23715L24.4093 14.113L24.3953 14.1364C24.3954 14.2208 24.4658 14.3004 24.5595 14.3003L25.333 14.2995C25.4502 14.2994 25.5672 14.1633 25.5764 14.032L26.3307 9.28747L26.3307 9.2734ZM22.1146 11.706C21.5427 11.7067 21.0979 12.1618 21.0985 12.7384C21.099 13.1931 21.4274 13.4412 21.8586 13.4407C22.4211 13.4401 22.8753 13.0084 22.8747 12.4318C22.8789 11.9724 22.5505 11.7056 22.1146 11.706Z" fill="white" fill-opacity="0.8"/>
</g>
<defs>
<clipPath id="clip0_2_1344">
<rect width="27" height="24" fill="white" transform="translate(0.820801 0.352295) rotate(-0.0613952)"/>
</clipPath>
</defs>
</svg>
