<svg width="28" height="25" viewBox="0 0 28 25" fill="none" xmlns="http://www.w3.org/2000/svg">
<g clip-path="url(#clip0_2_1346)">
<path d="M23.9135 10.6358C23.4963 10.6363 23.0372 10.9508 23.0381 11.7008L24.7584 11.699C24.7576 10.949 24.3213 10.6354 23.9135 10.6358ZM18.4105 10.7636C18.0261 10.764 17.7872 10.9002 17.614 11.0926L17.626 13.5675C17.7902 13.7408 18.0248 13.8812 18.4138 13.8808C19.0279 13.8801 19.4397 13.2094 19.4387 12.314C19.4378 11.4422 19.0152 10.7582 18.4105 10.7636ZM25.5727 1.78403L3.07275 1.80814C1.83057 1.80947 0.823834 2.81836 0.825165 4.06055L0.842845 20.5605C0.844177 21.8027 1.85307 22.8095 3.09526 22.8081L25.5952 22.784C26.8374 22.7827 27.8442 21.7738 27.8428 20.5316L27.8251 4.03161C27.8238 2.78943 26.8149 1.78269 25.5727 1.78403ZM6.56339 13.481C6.56467 14.681 5.61384 15.3617 4.22635 15.3725C3.65448 15.3731 3.02623 15.2613 2.40719 14.9948L2.40549 13.4057C2.96831 13.7051 3.67637 13.9341 4.2295 13.9335C4.59981 13.9331 4.86689 13.8343 4.86656 13.525C4.8657 12.7281 2.33478 13.0308 2.3328 11.1886C2.33154 10.0074 3.23078 9.30328 4.58078 9.30184C5.13391 9.30124 5.68244 9.38503 6.2358 9.60475L6.23747 11.1704C5.73093 10.899 5.08858 10.745 4.58233 10.7456C4.23077 10.746 4.01525 10.8493 4.01553 11.1071C4.01633 11.8571 6.56126 11.4982 6.56339 13.481ZM9.78554 10.8244L8.51992 10.8257L8.52245 13.1929C8.5235 14.1726 9.57787 13.8668 9.78871 13.7822L9.79016 15.1369C9.56998 15.259 9.16696 15.3579 8.62321 15.3584C7.63415 15.3595 6.89275 14.6337 6.89169 13.6494L6.89535 8.31029L8.52154 7.96168L8.52308 9.40542L9.78402 9.40407L9.78554 10.8244ZM13.2544 10.9332C13.0434 10.8631 12.3777 10.7654 11.9845 11.2814L11.9887 15.2377L10.3246 15.2394L10.3184 9.4035L11.7575 9.40196L11.8611 9.89404C12.2494 9.17643 13.0277 9.32091 13.2481 9.40036L13.2528 9.40036L13.2544 10.9332ZM15.3262 15.2341L13.6528 15.2359L13.6465 9.39993L15.32 9.39814L15.3262 15.2341ZM15.319 8.53564L13.646 8.89368L13.6445 7.539L15.3176 7.18096L15.319 8.53564ZM18.7998 15.3522C18.2185 15.3529 17.862 15.1048 17.6228 14.9316L17.6201 16.816L15.9564 17.1693L15.9481 9.39747L17.4153 9.3959L17.5001 9.80831C17.7295 9.59712 18.1511 9.2873 18.8026 9.2866C19.9698 9.28535 21.0725 10.3389 21.0746 12.2748C21.0769 14.3889 19.9904 15.3463 18.7998 15.3522ZM26.3159 12.9301L23.0581 12.9336C23.134 13.7116 23.7061 13.9407 24.353 13.94C25.0139 13.9393 25.534 13.7981 25.9885 13.568L25.9899 14.9086C25.5355 15.1575 24.9404 15.341 24.1435 15.3418C22.5216 15.3436 21.3862 14.3276 21.384 12.3213C21.3822 10.6245 22.3417 9.27812 23.9261 9.27642C25.5058 9.27473 26.3322 10.6192 26.334 12.3254C26.3342 12.4895 26.3205 12.8364 26.3159 12.9301Z" fill="white" fill-opacity="0.8"/>
</g>
<defs>
<clipPath id="clip0_2_1346">
<rect width="27" height="24" fill="white" transform="translate(0.820801 0.310547) rotate(-0.0613952)"/>
</clipPath>
</defs>
</svg>
