<svg width="28" height="25" viewBox="0 0 28 25" fill="none" xmlns="http://www.w3.org/2000/svg">
<g clip-path="url(#clip0_2_1342)">
<path d="M23.4776 19.6028C23.478 19.9216 23.2626 20.1515 22.9532 20.1518C22.6345 20.1522 22.428 19.9086 22.4276 19.604C22.4273 19.2993 22.6333 19.0553 22.952 19.055C23.2614 19.0546 23.4773 19.2981 23.4776 19.6028ZM8.9083 19.07C8.57549 19.0704 8.38356 19.3143 8.38389 19.619C8.38421 19.9237 8.57666 20.1672 8.90948 20.1669C9.21416 20.1666 9.42017 19.9366 9.41983 19.6179C9.41481 19.3132 9.21299 19.0697 8.9083 19.07ZM14.4161 19.05C14.163 19.0503 14.0085 19.2145 13.9712 19.4583L14.8665 19.4574C14.8241 19.1902 14.6598 19.0498 14.4161 19.05ZM19.4692 19.0587C19.1505 19.059 18.9586 19.303 18.9589 19.6077C18.9592 19.9124 19.1517 20.1559 19.4704 20.1556C19.7892 20.1552 19.9952 19.9253 19.9948 19.6066C19.9945 19.3019 19.788 19.0583 19.4692 19.0587ZM24.4346 20.2768C24.4346 20.2909 24.4487 20.3002 24.4487 20.3284C24.4487 20.3424 24.4347 20.3518 24.4347 20.3799C24.4207 20.394 24.4207 20.4034 24.4113 20.4175C24.3973 20.4315 24.3879 20.4409 24.3598 20.441C24.3457 20.455 24.3364 20.455 24.3082 20.4551C24.2942 20.4551 24.2848 20.4551 24.2567 20.4411C24.2426 20.4411 24.2332 20.427 24.2191 20.4177C24.2051 20.4036 24.1957 20.3943 24.1957 20.3802C24.1816 20.3568 24.1815 20.3427 24.1815 20.3286C24.1815 20.3052 24.1815 20.2911 24.1955 20.2771C24.1955 20.2536 24.2096 20.2395 24.2189 20.2255C24.233 20.2114 24.2423 20.2114 24.2564 20.202C24.2798 20.1879 24.2939 20.1879 24.3079 20.1879C24.3314 20.1879 24.3454 20.1878 24.3595 20.2019C24.383 20.2159 24.397 20.2159 24.4111 20.2253C24.4252 20.2346 24.4205 20.2534 24.4346 20.2768ZM24.3315 20.3425C24.355 20.3425 24.355 20.3285 24.369 20.3284C24.3831 20.3144 24.3831 20.305 24.3831 20.2909C24.383 20.2769 24.383 20.2675 24.369 20.2534C24.3549 20.2535 24.3455 20.2394 24.3174 20.2394L24.2424 20.2395L24.2426 20.4036L24.2801 20.4035L24.28 20.3379L24.294 20.3379L24.3457 20.4035L24.3832 20.4034L24.3315 20.3425ZM27.8251 4.16223L27.8428 20.6622C27.8442 21.9044 26.8374 22.9133 25.5952 22.9146L3.09526 22.9387C1.85307 22.9401 0.844177 21.9333 0.842845 20.6912L0.825165 4.19116C0.823834 2.94897 1.83057 1.94008 3.07275 1.93875L25.5727 1.91464C26.8149 1.91331 27.8238 2.92004 27.8251 4.16223ZM3.83218 10.7317C3.83602 14.3176 6.75007 17.2208 10.3313 17.2169C11.6063 17.2156 12.8575 16.8298 13.9161 16.1303C10.4959 13.3542 10.5137 8.10891 13.9045 5.32558C12.8444 4.62359 11.5924 4.24525 10.3174 4.24661C6.73616 4.24576 3.82835 7.15982 3.83218 10.7317ZM14.3376 15.8204C17.6396 13.2388 17.6201 8.21379 14.3267 5.62513C11.0389 8.22084 11.0302 13.2505 14.3376 15.8204ZM7.67116 19.4041C7.67072 18.9963 7.40325 18.7294 6.98136 18.7158C6.76573 18.7161 6.53612 18.7819 6.38168 19.0212C6.26898 18.8291 6.07667 18.7168 5.80948 18.7171C5.63136 18.7173 5.4533 18.7831 5.31288 18.9707L5.31266 18.7645L4.92828 18.7649L4.93013 20.4852L5.3145 20.4848C5.31355 19.5989 5.1958 19.0693 5.73486 19.0687C6.21298 19.0682 6.11975 19.5464 6.12075 20.4839L6.49106 20.4835C6.49014 19.6257 6.37236 19.068 6.91142 19.0675C7.38955 19.0669 7.2963 19.5358 7.29731 20.4827L7.68169 20.4823L7.68053 19.4041L7.67116 19.4041ZM9.77516 18.7597L9.40484 18.7601L9.40506 18.9663C9.27834 18.8118 9.10011 18.7136 8.85636 18.7138C8.37354 18.7143 8.00364 19.0991 8.0042 19.6194C8.00476 20.1444 8.37548 20.5237 8.85829 20.5232C9.10204 20.5229 9.28007 20.4337 9.40646 20.2695L9.40669 20.4851L9.777 20.4847L9.77516 18.7597ZM11.6749 19.9577C11.6741 19.2545 10.601 19.5744 10.6007 19.2463C10.6004 18.9791 11.1582 19.0207 11.4678 19.1938L11.6222 18.889C11.1812 18.6035 10.2062 18.6092 10.207 19.2749C10.2077 19.9452 11.2808 19.6628 11.2811 19.9768C11.2815 20.2722 10.6486 20.2494 10.3109 20.0154L10.1471 20.3109C10.6725 20.6666 11.6756 20.5905 11.6749 19.9577ZM13.3347 20.3918L13.2313 20.0732C13.0532 20.1718 12.6596 20.2801 12.6592 19.8816L12.6583 19.1035L13.2724 19.1028L13.272 18.756L12.658 18.7566L12.6574 18.2316L12.273 18.232L12.2736 18.757L11.9173 18.7574L11.9177 19.0996L12.274 19.0992L12.2748 19.882C12.2757 20.707 13.0865 20.5562 13.3347 20.3918ZM13.9575 19.763L15.2465 19.7617C15.2457 19.0023 14.8985 18.7027 14.4298 18.7032C13.9329 18.7037 13.5771 19.0744 13.5776 19.6088C13.5787 20.5697 14.6382 20.7279 15.1627 20.2727L14.9843 19.9916C14.619 20.292 14.0658 20.2645 13.9575 19.763ZM16.7267 18.7523C16.511 18.6587 16.1829 18.6685 16.0144 18.9593L16.0142 18.753L15.6298 18.7534L15.6317 20.4737L16.0161 20.4733L16.015 19.503C16.0144 18.9593 16.4598 19.0291 16.6146 19.1086L16.7267 18.7523ZM17.2245 19.6095C17.2239 19.0752 17.7675 18.9011 18.1944 19.2147L18.3722 18.9099C17.828 18.4839 16.8392 18.7193 16.8401 19.6146C16.8411 20.5428 17.8913 20.7291 18.3737 20.3161L18.1953 20.0116C17.7643 20.3168 17.2251 20.1345 17.2245 19.6095ZM20.3502 18.7484L19.9658 18.7488L19.966 18.955C19.5764 18.4398 18.5642 18.7315 18.5651 19.6081C18.5661 20.5081 19.6164 20.7648 19.9674 20.2582L19.9676 20.4738L20.352 20.4734L20.3502 18.7484ZM21.9298 18.7467C21.8173 18.6905 21.4141 18.6113 21.2176 18.9537L21.2173 18.7474L20.847 18.7478L20.8489 20.4682L21.2192 20.4678L21.2181 19.4974C21.2176 18.9818 21.6395 19.0142 21.8177 19.103L21.9298 18.7467ZM23.8181 18.0462L23.4478 18.0466L23.4488 18.9513C23.0639 18.4408 22.047 18.7137 22.0479 19.6044C22.0489 20.5137 23.1039 20.7564 23.4502 20.2544L23.4504 20.4701L23.8207 20.4697L23.8181 18.0462ZM24.1706 14.5255L24.1709 14.7412L24.2084 14.7411L24.2081 14.5255L24.2972 14.5254L24.2971 14.4879L24.0815 14.4881L24.0816 14.5256L24.1706 14.5255ZM24.4862 20.3283C24.4862 20.3049 24.4862 20.2768 24.4721 20.2533C24.458 20.2393 24.4486 20.2159 24.4345 20.2018C24.4204 20.1878 24.397 20.1784 24.3829 20.1644C24.3595 20.1644 24.3313 20.1504 24.3079 20.1504C24.2938 20.1504 24.2704 20.1645 24.2423 20.1645C24.2189 20.1786 24.2048 20.188 24.1908 20.2021C24.1673 20.2162 24.1533 20.2396 24.1533 20.2537C24.1393 20.2771 24.1393 20.3052 24.1393 20.3287C24.1394 20.3427 24.1394 20.3662 24.1535 20.3943C24.1535 20.4084 24.1676 20.4318 24.191 20.4458C24.2051 20.4599 24.2145 20.4692 24.2426 20.4833C24.2661 20.4973 24.2942 20.4973 24.3083 20.4973C24.3317 20.4972 24.3598 20.4972 24.3833 20.4831C24.3973 20.469 24.4207 20.4596 24.4348 20.4456C24.4488 20.4315 24.4582 20.408 24.4722 20.394C24.4863 20.3658 24.4862 20.3424 24.4862 20.3283ZM24.63 14.4828L24.5643 14.4829L24.4895 14.6471L24.4143 14.4831L24.3487 14.4831L24.349 14.7363L24.3865 14.7362L24.3863 14.544L24.4614 14.708L24.513 14.708L24.5785 14.5438L24.5787 14.736L24.6302 14.736L24.63 14.4828ZM24.8322 10.7092C24.8283 7.13732 21.9143 4.2295 18.333 4.23334C17.058 4.2347 15.8069 4.62042 14.7483 5.31999C18.1309 8.09606 18.1881 13.3554 14.7598 16.1247C15.82 16.8267 17.0813 17.205 18.3469 17.2036C21.9282 17.2045 24.836 14.2951 24.8322 10.7092Z" fill="white" fill-opacity="0.8"/>
</g>
<defs>
<clipPath id="clip0_2_1342">
<rect width="27" height="24" fill="white" transform="translate(0.820801 0.394287) rotate(-0.0613952)"/>
</clipPath>
</defs>
</svg>
