<svg width="28" height="25" viewBox="0 0 28 25" fill="none" xmlns="http://www.w3.org/2000/svg">
<g clip-path="url(#clip0_2_1340)">
<path d="M14.9978 10.6584C14.9986 11.4646 14.507 11.9292 13.6398 11.9301L12.5007 11.9313L12.498 9.39072L13.6417 9.38949C14.5042 9.38857 14.9969 9.84741 14.9978 10.6584ZM17.2275 13.5903C17.2279 13.9794 17.5657 14.2322 18.0954 14.2316C18.7704 14.2309 19.2762 13.8038 19.2755 13.2038L19.2751 12.8428L18.1736 12.9143C17.5502 12.9572 17.2271 13.1872 17.2275 13.5903ZM27.8251 4.11023L27.8428 20.6102C27.8442 21.8524 26.8374 22.8613 25.5952 22.8626L3.09526 22.8867C1.85307 22.8881 0.844177 21.8813 0.842845 20.6391L0.825165 4.13916C0.823834 2.89697 1.83057 1.88808 3.07275 1.88675L25.5727 1.86264C26.8149 1.86131 27.8238 2.86804 27.8251 4.11023ZM6.82172 9.67336C7.21551 9.70575 7.60901 9.47564 7.85714 9.18475C8.10057 8.88449 8.25951 8.4812 8.21689 8.07343C7.87003 8.08786 7.43901 8.30395 7.19089 8.60421C6.96617 8.86227 6.77443 9.27966 6.82172 9.67336ZM9.66609 13.1625C9.6567 13.1531 8.74696 12.8072 8.73646 11.7572C8.72614 10.8807 9.45225 10.458 9.48504 10.4346C9.07189 9.82564 8.43432 9.7607 8.21399 9.74687C7.64208 9.71467 7.15496 10.0714 6.88309 10.0717C6.60653 10.072 6.19369 9.7631 5.7437 9.77295C5.15778 9.78296 4.6097 10.1164 4.31495 10.6464C3.70203 11.7064 4.15839 13.2715 4.75463 14.1334C5.04571 14.5596 5.39777 15.028 5.85713 15.0088C6.29304 14.9896 6.4662 14.7269 6.9912 14.7263C7.52089 14.7257 7.67119 15.0068 8.13056 15.0016C8.60867 14.9918 8.90354 14.5743 9.19839 14.1474C9.52131 13.6595 9.65674 13.1906 9.66609 13.1625ZM16.0103 10.6526C16.0089 9.4057 15.1408 8.55351 13.9033 8.55483L11.5033 8.55741L11.5102 14.9512L12.5039 14.9501L12.5016 12.7657L13.875 12.7642C15.1313 12.7629 16.0116 11.8995 16.0103 10.6526ZM20.2302 11.759C20.2292 10.8356 19.488 10.241 18.3536 10.2423C17.2989 10.2434 16.5214 10.8489 16.4942 11.6739L17.3895 11.673C17.4641 11.2791 17.8294 11.0209 18.3263 11.0204C18.9357 11.0198 19.2735 11.3006 19.274 11.8256L19.2744 12.1772L18.037 12.2535C16.8839 12.3251 16.261 12.7992 16.2619 13.6195C16.2628 14.4492 16.9056 14.9969 17.829 14.9959C18.4524 14.9953 19.0287 14.6806 19.2906 14.1788L19.3094 14.1787L19.3102 14.9475L20.2289 14.9465L20.2255 11.759L20.2302 11.759ZM25.0193 10.296L24.0115 10.2971L22.8483 14.0765L22.8296 14.0765L21.6583 10.2997L20.613 10.3008L22.3008 14.9537L22.2121 15.235C22.0626 15.7133 21.8143 15.901 21.3737 15.9015C21.294 15.9016 21.144 15.8924 21.0831 15.8878L21.0839 16.6565C21.1402 16.6752 21.3886 16.6796 21.4636 16.6796C22.4339 16.6785 22.8882 16.3077 23.2855 15.187L25.0193 10.296Z" fill="white" fill-opacity="0.8"/>
</g>
<defs>
<clipPath id="clip0_2_1340">
<rect width="27" height="24" fill="white" transform="translate(0.820801 0.436035) rotate(-0.0613952)"/>
</clipPath>
</defs>
</svg>
