<svg width="28" height="25" viewBox="0 0 28 25" fill="none" xmlns="http://www.w3.org/2000/svg">
<g clip-path="url(#clip0_2_1338)">
<path d="M22.8687 11.2964C22.8687 11.2964 23.2268 13.0397 23.3069 13.4053L21.7413 13.4069C21.8955 12.9896 22.4891 11.3671 22.4891 11.3671C22.4797 11.3811 22.6433 10.9403 22.7368 10.6684L22.8687 11.2964ZM27.8251 4.19885L27.8428 20.6988C27.8442 21.941 26.8374 22.9499 25.5952 22.9512L3.09526 22.9754C1.85307 22.9767 0.844177 21.97 0.842845 20.7278L0.825165 4.22778C0.823834 2.9856 1.83057 1.9767 3.07275 1.97537L25.5727 1.95126C26.8149 1.94993 27.8238 2.95666 27.8251 4.19885ZM7.98622 15.9951L10.9409 8.71694L8.94873 8.71908L7.11187 13.6898L6.90923 12.6822L6.24939 9.33604C6.14108 8.87209 5.80813 8.74119 5.39561 8.72289L2.3628 8.72614L2.33014 8.87148C3.07097 9.05819 3.7322 9.32936 4.30912 9.67093L5.99403 15.9973L7.98622 15.9951ZM12.4112 15.9997L13.5847 8.71411L11.7003 8.71613L10.5315 16.0018L12.4112 15.9997ZM18.9665 13.6115C18.975 12.7818 18.468 12.1495 17.3847 11.6304C16.7234 11.2983 16.32 11.0737 16.3196 10.7315C16.3287 10.4221 16.6612 10.103 17.4018 10.1022C18.0158 10.0875 18.466 10.2323 18.8036 10.3773L18.9725 10.4568L19.2286 8.8815C18.8581 8.73659 18.2673 8.57316 17.5408 8.57394C15.6798 8.57593 14.3731 9.57108 14.3652 10.9867C14.3523 12.032 15.3045 12.6123 16.0173 12.9631C16.7443 13.3185 16.993 13.5526 16.9933 13.8667C16.9845 14.3542 16.4035 14.5798 15.8644 14.5804C15.1144 14.5812 14.7111 14.4645 14.0968 14.1933L13.8482 14.0763L13.5875 15.7125C14.0283 15.9136 14.8441 16.0909 15.6879 16.0994C17.666 16.1019 18.954 15.1209 18.9665 13.6115ZM25.5878 15.9856L24.0612 8.70289L22.6034 8.70445C22.1534 8.70493 21.8114 8.83655 21.6197 9.31019L18.8284 15.9929L20.8065 15.9908C20.8065 15.9908 21.129 15.0904 21.1991 14.8981L23.6179 14.8956C23.6744 15.1533 23.844 15.9875 23.844 15.9875L25.5878 15.9856Z" fill="white" fill-opacity="0.8"/>
</g>
<defs>
<clipPath id="clip0_2_1338">
<rect width="27" height="24" fill="white" transform="translate(0.820801 0.477783) rotate(-0.0613952)"/>
</clipPath>
</defs>
</svg>
