<svg width="25" height="25" viewBox="0 0 25 25" fill="none" xmlns="http://www.w3.org/2000/svg">
<g clip-path="url(#clip0_2_1322)">
<path d="M23.8298 0.0526685C24.1246 0.266638 24.2455 0.552223 24.1923 0.909423L20.7858 21.4845C20.7414 21.7435 20.5987 21.9445 20.3578 22.0877C20.2329 22.1592 20.0946 22.1951 19.9428 22.1952C19.8446 22.1953 19.7374 22.1731 19.6213 22.1286L13.5517 19.6574L10.3148 23.6118C10.1543 23.8173 9.93568 23.9202 9.6589 23.9205C9.54282 23.9207 9.44459 23.9029 9.3642 23.8673C9.19449 23.805 9.05821 23.7002 8.95538 23.553C8.85254 23.4058 8.80103 23.2429 8.80083 23.0643L8.79583 18.3902L20.3521 4.19479L6.04837 16.5985L0.755869 14.4345C0.425378 14.3099 0.246544 14.0646 0.219366 13.6985C0.201126 13.3414 0.343701 13.0778 0.64709 12.9079L22.919 0.0268587C23.0529 -0.053642 23.1957 -0.0939736 23.3475 -0.0941362C23.526 -0.0943276 23.6868 -0.0453927 23.8298 0.0526685Z" fill="white"/>
</g>
<defs>
<clipPath id="clip0_2_1322">
<rect width="24" height="24" fill="white" transform="translate(0.205078 0.411377) rotate(-0.0613952)"/>
</clipPath>
</defs>
</svg>
