<svg width="45" height="45" viewBox="0 0 45 45" fill="none" xmlns="http://www.w3.org/2000/svg">
<circle cx="22.5" cy="22.5" r="22.5" fill="white"/>
<path fill-rule="evenodd" clip-rule="evenodd" d="M26.7694 12C30.5023 12 33.011 14.6146 33.011 18.5052V27.4948C33.011 31.3854 30.5023 34 26.7694 34H17.2306C13.5033 34 11 31.3854 11 27.4948V18.5052C11 14.6146 13.5033 12 17.2306 12H26.7694ZM26.7694 13.6541H17.2306C14.4505 13.6541 12.6541 15.5586 12.6541 18.5052V27.4948C12.6541 30.4425 14.4505 32.3459 17.2306 32.3459H26.7694C29.5561 32.3459 31.3569 30.4425 31.3569 27.4948V18.5052C31.3569 15.5586 29.5561 13.6541 26.7694 13.6541ZM27.4741 23.1372C27.4811 23.1429 27.4879 23.1485 27.5023 23.1619L27.5236 23.1823C27.5279 23.1864 27.5327 23.1911 27.5379 23.1962L27.5994 23.2573C27.7983 23.4564 28.348 24.0178 29.9862 25.7C30.3049 26.0264 30.2993 26.5502 29.9718 26.8689C29.6454 27.1898 29.1205 27.1799 28.8018 26.8535C28.8018 26.8535 26.5423 24.5344 26.3813 24.3778C26.2103 24.2377 25.9357 24.1561 25.6656 24.1826C25.391 24.2102 25.144 24.3414 24.9686 24.5542C22.4058 27.6629 22.3749 27.6927 22.333 27.7335C21.3869 28.662 19.8595 28.6466 18.9299 27.6982C18.9299 27.6982 17.9044 26.6572 17.8867 26.6362C17.632 26.4002 17.1776 26.4157 16.9053 26.7035L15.218 28.4822C15.0548 28.6543 14.8365 28.7403 14.6181 28.7403C14.413 28.7403 14.209 28.6653 14.0491 28.5131C13.7172 28.1999 13.704 27.675 14.0182 27.3453L15.7033 25.5666C16.5954 24.6193 18.1007 24.573 19.0523 25.4662L20.1088 26.5381C20.4032 26.8358 20.8818 26.8413 21.1773 26.5502C21.2887 26.419 23.6905 23.5022 23.6905 23.5022C24.1471 22.9486 24.7911 22.6068 25.5068 22.5362C26.2236 22.4733 26.9194 22.6817 27.4741 23.1372ZM18.2321 17.1046C19.7561 17.1057 20.9945 18.3452 20.9945 19.8659C20.9945 21.3888 19.755 22.6283 18.2321 22.6283C16.7092 22.6283 15.4708 21.3888 15.4708 19.8659C15.4708 18.3429 16.7092 17.1046 18.2321 17.1046ZM18.231 18.7587C17.6212 18.7587 17.1249 19.2549 17.1249 19.8659C17.1249 20.4768 17.6212 20.9741 18.2321 20.9741C18.843 20.9741 19.3404 20.4768 19.3404 19.8659C19.3404 19.256 18.843 18.7598 18.231 18.7587Z" fill="#323232"/>
</svg>
