<svg width="116" height="48" viewBox="0 0 116 48" fill="none" xmlns="http://www.w3.org/2000/svg">
<g opacity="0.5">
<circle cx="92.3539" cy="23.6462" r="22.6462" stroke="#323232" stroke-width="2"/>
<path d="M103.731 23.6461L104.438 22.939L105.145 23.6461L104.438 24.3532L103.731 23.6461ZM80.9769 24.6461C80.4246 24.6461 79.9769 24.1984 79.9769 23.6461C79.9769 23.0938 80.4246 22.6461 80.9769 22.6461V24.6461ZM96.8533 15.3544L104.438 22.939L103.024 24.3532L95.4391 16.7686L96.8533 15.3544ZM104.438 24.3532L96.8533 31.9378L95.4391 30.5236L103.024 22.939L104.438 24.3532ZM103.731 24.6461H80.9769V22.6461H103.731V24.6461Z" fill="#323232"/>
<circle cx="23.6462" cy="23.6462" r="22.6462" transform="matrix(-1 0 0 1 47.2923 0)" stroke="#323232" stroke-width="2"/>
<path d="M12.2692 23.6461L11.5621 22.939L10.855 23.6461L11.5621 24.3532L12.2692 23.6461ZM35.0231 24.6461C35.5754 24.6461 36.0231 24.1984 36.0231 23.6461C36.0231 23.0938 35.5754 22.6461 35.0231 22.6461V24.6461ZM19.1467 15.3544L11.5621 22.939L12.9763 24.3532L20.5609 16.7686L19.1467 15.3544ZM11.5621 24.3532L19.1467 31.9378L20.5609 30.5236L12.9763 22.939L11.5621 24.3532ZM12.2692 24.6461H35.0231V22.6461H12.2692V24.6461Z" fill="#323232"/>
</g>
</svg>
