<svg width="45" height="45" viewBox="0 0 45 45" fill="none" xmlns="http://www.w3.org/2000/svg">
<circle cx="22.5" cy="22.5" r="22.5" fill="white"/>
<path fill-rule="evenodd" clip-rule="evenodd" d="M22.3842 12C25.1592 12 27.4517 14.1145 27.7344 16.8189L27.8133 16.8198C29.3527 16.8198 31.2245 17.8422 31.8562 20.7098L32.6938 27.1935C32.9943 29.2861 32.6185 30.9646 31.5748 32.1686C30.5365 33.3662 28.893 34 26.8217 34H17.9587C15.6835 34 14.0985 33.4426 13.1121 32.2971C12.1216 31.1483 11.7904 29.4252 12.128 27.1766L12.9518 20.7789C13.4933 17.8454 15.4733 16.8198 17.0064 16.8198C17.1388 15.5994 17.6891 14.4384 18.5621 13.5681C19.5654 12.5712 20.9488 12 22.3619 12H22.3842ZM27.8133 18.4124H17.0064C16.5382 18.4124 14.9733 18.6013 14.5242 21.0262L13.7046 27.3963C13.4381 29.1831 13.6441 30.4763 14.3182 31.2587C14.9839 32.0316 16.1751 32.4075 17.9587 32.4075H26.8217C27.9343 32.4075 29.4536 32.1856 30.3709 31.126C31.0992 30.2862 31.3498 29.0356 31.1162 27.408L30.2891 20.9827C29.9367 19.3997 29.0066 18.4124 27.8133 18.4124ZM25.4806 21.3682C25.9201 21.3682 26.3012 21.7249 26.3012 22.1645C26.3012 22.604 25.9689 22.9607 25.5294 22.9607H25.4806C25.041 22.9607 24.6843 22.604 24.6843 22.1645C24.6843 21.7249 25.041 21.3682 25.4806 21.3682ZM19.2908 21.3682C19.7304 21.3682 20.1115 21.7249 20.1115 22.1645C20.1115 22.604 19.7781 22.9607 19.3386 22.9607H19.2908C18.8513 22.9607 18.4946 22.604 18.4946 22.1645C18.4946 21.7249 18.8513 21.3682 19.2908 21.3682ZM22.381 13.5925H22.365C21.366 13.5925 20.3924 13.9949 19.6864 14.6967C19.1113 15.2692 18.7352 16.0219 18.6135 16.8193L26.1294 16.8196C25.8566 14.9954 24.2791 13.5925 22.381 13.5925Z" fill="#323232"/>
</svg>
