<svg width="25" height="25" viewBox="0 0 25 25" fill="none" xmlns="http://www.w3.org/2000/svg">
<path d="M17.026 5.97488C16.3416 5.19524 15.9638 4.19345 15.963 3.15602L12.873 3.15933L12.8863 15.5593C12.8632 16.2304 12.5806 16.8663 12.098 17.3331C11.6154 17.7999 10.9704 18.0613 10.299 18.0621C8.87897 18.0636 7.69773 16.9049 7.69619 15.4649C7.69434 13.7449 9.35296 12.4531 11.0635 12.9813L11.0601 9.82128C7.60965 9.36497 4.59252 12.0482 4.59619 15.4682C4.59976 18.7982 7.36229 21.1652 10.2923 21.1621C13.4323 21.1587 15.9796 18.606 15.9762 15.456L15.9694 9.16602C17.2234 10.0645 18.7283 10.5457 20.2709 10.5414L20.2676 7.45141C20.2676 7.45141 18.3877 7.54342 17.026 5.97488Z" fill="white" fill-opacity="0.8"/>
</svg>
