<svg width="25" height="25" viewBox="0 0 25 25" fill="none" xmlns="http://www.w3.org/2000/svg">
<path d="M7.11614 11.1943C8.55917 14.0228 10.8816 16.3303 13.7132 17.7773L15.9108 15.5749C16.1805 15.3046 16.5805 15.2142 16.9306 15.3338C18.051 15.7026 19.2612 15.9013 20.5012 15.9C21.0512 15.8994 21.5017 16.3489 21.5023 16.8989L21.506 20.3889C21.5066 20.9389 21.0571 21.3894 20.5071 21.39C11.1171 21.4 3.49893 13.7982 3.48886 4.4082C3.48828 3.8582 3.93779 3.40772 4.48779 3.40713L7.98779 3.40338C8.53779 3.40279 8.98827 3.85231 8.98886 4.40231C8.9902 5.65231 9.19149 6.85209 9.56269 7.9717C9.67306 8.32158 9.59348 8.71166 9.31378 8.99196L7.11614 11.1943Z" fill="white" fill-opacity="0.8"/>
</svg>
