<svg width="52" height="52" viewBox="0 0 52 52" fill="none" xmlns="http://www.w3.org/2000/svg">
<path fill-rule="evenodd" clip-rule="evenodd" d="M23.6899 31.3809L33.1819 46.7805C33.5972 47.4554 34.2461 47.4476 34.5083 47.4113C34.7704 47.3749 35.4011 47.214 35.6296 46.4483L47.4992 6.35948C47.7068 5.65088 47.3253 5.1681 47.154 4.9968C46.9878 4.82549 46.5128 4.45951 45.825 4.65418L5.70765 16.4018C4.94714 16.625 4.78102 17.2635 4.74469 17.5257C4.70835 17.793 4.69796 18.4549 5.37022 18.878L20.9463 28.6192L34.7081 14.7121C35.4634 13.949 36.6963 13.9412 37.462 14.6965C38.2277 15.4518 38.2329 16.6873 37.4776 17.4504L23.6899 31.3809ZM34.3058 51.3202C32.4993 51.3202 30.8433 50.4014 29.8674 48.8233L19.8043 32.4944L3.30673 22.177C1.52875 21.0635 0.599535 19.0804 0.887645 16.9962C1.17316 14.9119 2.60333 13.2559 4.61231 12.6668L44.7297 0.919131C46.5751 0.379249 48.553 0.89058 49.9131 2.24548C51.2732 3.61335 51.7793 5.61195 51.229 7.4652L39.3594 47.5514C38.765 49.5682 37.1039 50.9932 35.0248 51.2709C34.7808 51.302 34.5446 51.3202 34.3058 51.3202Z" fill="#323232"/>
</svg>
