<svg width="25" height="25" viewBox="0 0 25 25" fill="none" xmlns="http://www.w3.org/2000/svg">
<path d="M12.7021 1.22034L3.70643 5.22998L3.71286 11.23C3.71881 16.78 7.56437 21.9659 12.7257 23.2203C17.8844 21.9548 21.7188 16.7607 21.7129 11.2107L21.7064 5.21069L12.7021 1.22034ZM19.7129 11.2128C19.7177 15.7328 16.7422 19.906 12.7235 21.1503C8.70217 19.9146 5.71771 15.7478 5.71286 11.2278L5.70783 6.52783L12.7045 3.41034L19.7078 6.51283L19.7129 11.2128ZM8.12349 11.8152L6.71501 13.2268L10.7193 17.2225L18.7107 9.2139L17.2992 7.79541L10.7163 14.3925L8.12349 11.8152Z" fill="#222222"/>
</svg>
