<svg width="25" height="25" viewBox="0 0 25 25" fill="none" xmlns="http://www.w3.org/2000/svg">
<path d="M19.4748 5.09887C18.557 4.17378 17.4642 3.44069 16.2601 2.94237C15.056 2.44404 13.7648 2.19045 12.4617 2.19639C7.00168 2.20224 2.55645 6.657 2.5623 12.117C2.56417 13.867 3.026 15.5665 3.8876 17.0656L2.49311 22.2071L7.74163 20.8215C9.19247 21.6099 10.8229 22.0282 12.4829 22.0264C17.9429 22.0205 22.3881 17.5658 22.3823 12.1058C22.3795 9.45576 21.3468 6.96687 19.4748 5.09887ZM12.4811 20.3464C11.0011 20.348 9.5507 19.9495 8.27989 19.2009L7.9797 19.0212L4.86058 19.8445L5.68732 16.8037L5.48699 16.4939C4.66333 15.1817 4.2251 13.6645 4.2223 12.1152C4.21743 7.57522 7.91347 3.87126 12.4535 3.8664C14.6535 3.86404 16.7244 4.72182 18.2761 6.28016C19.0444 7.0433 19.6535 7.95134 20.0683 8.95166C20.4831 9.95198 20.6952 11.0247 20.6923 12.1076C20.7172 16.6475 17.0211 20.3415 12.4811 20.3464ZM16.9945 14.1815C16.7444 14.0618 15.5237 13.4631 15.3037 13.3733C15.0736 13.2936 14.9135 13.2538 14.7438 13.4939C14.574 13.7441 14.1046 14.3046 13.9648 14.4648C13.825 14.6349 13.675 14.6551 13.4249 14.5254C13.1748 14.4056 12.3745 14.1365 11.4336 13.2975C10.6929 12.6383 10.202 11.8288 10.0517 11.579C9.91146 11.3291 10.0313 11.199 10.1612 11.0689C10.2711 10.9587 10.4109 10.7786 10.5307 10.6385C10.6506 10.4983 10.7005 10.3883 10.7803 10.2282C10.8601 10.0581 10.8199 9.91815 10.7598 9.79821C10.6997 9.67828 10.1984 8.45881 9.99785 7.95903C9.79733 7.47924 9.5874 7.53947 9.43739 7.52963L8.95739 7.53014C8.78739 7.53033 8.52745 7.5906 8.29772 7.84085C8.07799 8.09109 7.43863 8.69177 7.43994 9.91177C7.44125 11.1318 8.33251 12.3108 8.45268 12.4707C8.57286 12.6406 10.2055 15.1388 12.6867 16.2062C13.277 16.4655 13.7371 16.615 14.0972 16.7246C14.6874 16.914 15.2274 16.8834 15.6573 16.823C16.1373 16.7525 17.1267 16.2214 17.3261 15.6412C17.5355 15.061 17.5349 14.571 17.4648 14.461C17.3947 14.3511 17.2446 14.3013 16.9945 14.1815Z" fill="white" fill-opacity="0.8"/>
</svg>
