<svg width="25" height="25" viewBox="0 0 25 25" fill="none" xmlns="http://www.w3.org/2000/svg">
<g clip-path="url(#clip0_2_445)">
<path d="M0.70459 5.34827L0.706197 6.84827L14.9562 6.833L14.9682 18.083L10.3512 18.0879C10.0154 16.799 8.85484 15.8395 7.46584 15.841C6.07684 15.8425 4.91837 16.8045 4.58525 18.0941L3.71825 18.095L3.71423 14.345L2.21423 14.3467L2.21986 19.5967L4.58686 19.5941C4.92274 20.883 6.08327 21.8425 7.47227 21.841C8.86127 21.8395 10.0197 20.8775 10.3529 19.5879L16.5869 19.5813C16.9227 20.8701 18.0833 21.8297 19.4723 21.8282C20.8613 21.8267 22.0197 20.8647 22.3528 19.5751L24.7198 19.5725L24.7133 13.4555L24.6659 13.3378L23.1611 8.83946L22.9978 8.32438L16.4578 8.33139L16.4546 5.33139L0.70459 5.34827ZM1.4578 8.34746L1.45941 9.84746L8.20941 9.84023L8.2078 8.34023L1.4578 8.34746ZM16.4594 9.83139L21.9201 9.82554L23.2135 13.6679L23.2182 18.0741L22.3512 18.0751C22.0154 16.7862 20.8548 15.8267 19.4658 15.8282C18.0768 15.8297 16.9184 16.7916 16.5852 18.0813L16.4682 18.0814L16.4594 9.83139ZM2.21102 11.3467L2.21263 12.8467L6.71262 12.8418L6.71102 11.3418L2.21102 11.3467ZM7.46744 17.341C8.30519 17.3401 8.96815 18.0017 8.96905 18.8394C8.96995 19.6772 8.30841 20.3401 7.47066 20.341C6.63291 20.3419 5.96995 19.6804 5.96905 18.8426C5.96815 18.0049 6.62969 17.3419 7.46744 17.341ZM19.4674 17.3282C20.3052 17.3273 20.9681 17.9888 20.969 18.8266C20.9699 19.6643 20.3084 20.3273 19.4707 20.3282C18.6329 20.3291 17.9699 19.6675 17.969 18.8298C17.9681 17.992 18.6297 17.3291 19.4674 17.3282Z" fill="#222222"/>
</g>
<defs>
<clipPath id="clip0_2_445">
<rect width="24" height="24" fill="white" transform="translate(0.700684 0.848267) rotate(-0.0613952)"/>
</clipPath>
</defs>
</svg>
