<svg width="50" height="21" viewBox="0 0 50 21" fill="none" xmlns="http://www.w3.org/2000/svg">
<g clip-path="url(#clip0_2_1356)">
<path d="M9.34477 3.00555C8.77677 3.67914 7.8672 4.21111 6.95707 4.13616C6.84235 3.22633 7.28681 2.25884 7.80759 1.66103C8.37557 0.968479 9.37049 0.474427 10.1762 0.435649C10.272 1.38351 9.90327 2.31291 9.34477 3.00555ZM10.171 4.31291C8.8532 4.23849 7.72603 5.06434 7.10034 5.06501C6.46527 5.06569 5.50697 4.35582 4.46424 4.37589C3.10872 4.3963 1.84869 5.16543 1.15796 6.38911C-0.261405 8.83641 0.794797 12.4566 2.17143 14.4458C2.84557 15.431 3.65251 16.5108 4.71417 16.4717C5.71906 16.4328 6.1165 15.8162 7.32996 15.8149C8.55281 15.8136 8.90431 16.4673 9.966 16.4472C11.0656 16.427 11.7566 15.4595 12.4286 14.4728C13.1952 13.3534 13.5069 12.2628 13.5258 12.2059C13.5068 12.187 11.4015 11.3835 11.38 8.95664C11.3588 6.92803 13.0357 5.95932 13.1115 5.90236C12.1619 4.50035 10.683 4.35027 10.171 4.31291ZM17.7804 1.55556L17.7962 16.3346L20.0902 16.3321L20.0848 11.2794L23.2606 11.276C26.1613 11.2729 28.1974 9.28004 28.1943 6.39815C28.1912 3.51635 26.1888 1.54664 23.326 1.54971L17.7804 1.55556ZM20.0765 3.48703L22.7213 3.4842C24.7121 3.48207 25.8508 4.54255 25.8528 6.41004C25.8548 8.27753 24.7184 9.35002 22.7181 9.35217L20.0828 9.35499L20.0765 3.48703ZM32.395 16.4326C33.8359 16.4311 35.1717 15.6998 35.7772 14.5425L35.8246 14.5425L35.8265 16.3152L37.95 16.3129L37.9422 8.95661C37.9399 6.82372 36.232 5.45095 33.6061 5.45377C31.1698 5.45638 29.3701 6.85186 29.3058 8.76681L31.3725 8.7646C31.5421 7.85437 32.3851 7.25621 33.5417 7.25498C34.9447 7.25347 35.7322 7.90675 35.7335 9.11073L35.7344 9.9259L32.8716 10.0996C30.208 10.2636 28.7683 11.3554 28.7704 13.2514C28.7724 15.1663 30.262 16.4349 32.395 16.4326ZM33.0092 14.6782C31.7865 14.6795 31.0084 14.0927 31.0074 13.192C31.0065 12.2631 31.7548 11.7219 33.1862 11.6351L35.736 11.4712L35.7369 12.3053C35.7384 13.6894 34.564 14.6765 33.0093 14.6782M40.7888 20.3293C43.0261 20.3269 44.0774 19.4727 44.9942 16.8837L49.0109 5.57944L46.6788 5.58194L43.9865 14.3156L43.9391 14.3157L41.228 5.58778L38.8296 5.59035L42.7278 16.3457L42.52 17.0001C42.1704 18.1095 41.6021 18.5368 40.5878 18.5379C40.4077 18.538 40.057 18.5195 39.9147 18.5007L39.9166 20.2734C40.0493 20.3111 40.618 20.3295 40.7888 20.3293" fill="white"/>
</g>
<defs>
<clipPath id="clip0_2_1356">
<rect width="48.5333" height="20" fill="white" transform="translate(0.472656 0.446045) rotate(-0.0613952)"/>
</clipPath>
</defs>
</svg>
