<svg width="32" height="21" viewBox="0 0 32 21" fill="none" xmlns="http://www.w3.org/2000/svg">
<g clip-path="url(#clip0_2_1351)">
<path d="M6.22878 20.3951L6.22737 19.0713C6.22682 18.5638 5.85573 18.2333 5.22028 18.234C4.90261 18.2344 4.5585 18.323 4.3205 18.6101C4.13499 18.3675 3.87013 18.2355 3.47298 18.2359C3.20814 18.2362 2.94361 18.3026 2.73197 18.5455L2.73168 18.2808L2.1757 18.2814L2.17797 20.3994L2.73395 20.3988L2.7327 19.2295C2.7323 18.8545 2.97042 18.6776 3.34115 18.6772C3.71165 18.6768 3.89735 18.8752 3.89772 19.2282L3.89898 20.3976L4.45496 20.397L4.4537 19.2276C4.4533 18.8526 4.71772 18.6758 5.06192 18.6754C5.43265 18.675 5.61811 18.8734 5.61849 19.2264L5.61974 20.3957L6.22878 20.3951ZM14.4602 18.2682L13.5601 18.2692L13.5595 17.6294L13.0035 17.63L13.0042 18.2698L12.5011 18.2703L12.5016 18.6894L13.0045 18.6889L13.0055 19.6598C13.006 20.1452 13.2447 20.4317 13.8801 20.431C14.1184 20.4307 14.383 20.3643 14.5684 20.2759L14.409 19.8789C14.2502 19.9673 14.065 19.9896 13.9326 19.9897C13.6679 19.99 13.5618 19.8577 13.5616 19.637L13.5606 18.6883L14.4606 18.6873L14.4602 18.2682ZM19.1728 18.219C18.8552 18.2193 18.6435 18.352 18.5113 18.5286L18.511 18.2639L17.955 18.2645L17.9573 20.3825L18.5133 20.3819L18.512 19.1905C18.5116 18.8376 18.6967 18.6388 19.0409 18.6384C19.1467 18.6383 19.2792 18.6603 19.3851 18.6822L19.5435 18.2408C19.4376 18.2188 19.2787 18.219 19.1728 18.2191M12.0512 18.4474C11.7862 18.2932 11.4155 18.2275 11.0184 18.2279C10.383 18.2286 9.95977 18.4938 9.96022 18.913C9.9606 19.266 10.2785 19.4642 10.8345 19.5298L11.0993 19.5516C11.3906 19.5954 11.5495 19.6614 11.5496 19.7718C11.5498 19.9261 11.3381 20.0367 10.9674 20.0371C10.5966 20.0375 10.3054 19.9275 10.1199 19.8174L9.85556 20.1707C10.147 20.3468 10.5442 20.4347 10.9413 20.4342C11.6826 20.4334 12.106 20.1462 12.1056 19.7491C12.1052 19.374 11.7607 19.1758 11.2311 19.1102L10.9664 19.0884C10.728 19.0665 10.5427 19.0227 10.5426 18.8903C10.5424 18.7359 10.7276 18.6474 11.0188 18.6471C11.3366 18.6468 11.6544 18.7567 11.8133 18.8227L12.0512 18.4474ZM26.8242 18.211C26.5065 18.2113 26.2948 18.3439 26.1626 18.5205L26.1623 18.2558L25.6063 18.2564L25.6086 20.3744L26.1646 20.3738L26.1633 19.1824C26.1629 18.8295 26.3481 18.6307 26.6922 18.6303C26.7982 18.6302 26.9306 18.6522 27.0365 18.6741L27.1949 18.2327C27.089 18.2107 26.9301 18.2109 26.8242 18.211ZM19.73 19.3217C19.7307 19.9615 20.2606 20.4242 21.0814 20.4234C21.4521 20.423 21.7167 20.3565 21.9812 20.1798L21.7161 19.805C21.5045 19.9376 21.2928 20.0039 21.0545 20.0042C20.6044 20.0047 20.2864 19.7403 20.286 19.3211C20.2855 18.924 20.6029 18.6588 21.053 18.6364C21.2913 18.6361 21.5032 18.702 21.7151 18.8342L21.9794 18.4589C21.7145 18.2826 21.4497 18.2167 21.0791 18.2171C20.2583 18.218 19.7293 18.6819 19.73 19.3217ZM24.8662 19.3162L24.8651 18.2572L24.3091 18.2578L24.3094 18.5225C24.1238 18.3242 23.859 18.2142 23.5148 18.2145C22.8 18.2153 22.2445 18.6792 22.2452 19.319C22.2459 19.9588 22.8023 20.4215 23.5171 20.4208C23.8878 20.4204 24.1525 20.3098 24.3111 20.1111L24.3114 20.3758L24.8674 20.3752L24.8662 19.3162ZM22.8276 19.3184C22.8272 18.9433 23.1181 18.6341 23.5946 18.6336C24.0447 18.6331 24.3628 18.9196 24.3632 19.3167C24.3636 19.6918 24.0461 20.001 23.5961 20.0015C23.1195 19.9799 22.828 19.6934 22.8276 19.3184ZM16.1812 18.2224C15.4398 18.2232 14.9107 18.6649 14.9114 19.3269C14.9121 19.9888 15.4421 20.4294 16.2099 20.4286C16.5805 20.4282 16.9512 20.3395 17.2422 20.1407L16.977 19.8101C16.7654 19.9427 16.5008 20.0312 16.236 20.0315C15.8918 20.0318 15.5475 19.8998 15.4676 19.5248L17.3475 19.5227L17.3473 19.3464C17.3731 18.6623 16.8961 18.2216 16.1812 18.2224ZM16.1815 18.6195C16.5255 18.6191 16.7642 18.7954 16.8173 19.1263L15.4936 19.1277C15.5462 18.8408 15.7843 18.6199 16.1815 18.6195ZM29.9758 19.3107L29.9738 17.4133L29.4178 17.4139L29.419 18.517C29.2334 18.3187 28.9686 18.2087 28.6244 18.209C27.9096 18.2098 27.3541 18.6737 27.3548 19.3135C27.3554 19.9533 27.9119 20.416 28.6267 20.4153C28.9975 20.4149 29.2621 20.3043 29.4207 20.1056L29.421 20.3703L29.977 20.3697L29.9758 19.3107ZM27.9373 19.3129C27.9369 18.9378 28.2277 18.6287 28.7043 18.6282C29.1544 18.6277 29.4724 18.9142 29.4728 19.3113C29.4732 19.6863 29.1558 19.9955 28.7058 19.996C28.2291 19.9744 27.9377 19.688 27.9373 19.3129ZM9.35151 19.3328L9.35037 18.2738L8.79439 18.2744L8.79468 18.5391C8.6091 18.3408 8.34426 18.2308 8.00005 18.2311C7.28524 18.2319 6.72976 18.6958 6.73044 19.3356C6.73113 19.9754 7.2876 20.4381 8.00242 20.4374C8.37315 20.437 8.63776 20.3264 8.79638 20.1277L8.79666 20.3924L9.35264 20.3918L9.35151 19.3328ZM7.28642 19.335C7.28602 18.96 7.57695 18.6508 8.05345 18.6503C8.50354 18.6498 8.82163 18.9363 8.82206 19.3334C8.82246 19.7085 8.505 20.0176 8.05491 20.0181C7.57839 19.9965 7.28682 19.7101 7.28642 19.335Z" fill="black"/>
<path d="M11.8486 2.18726L20.1883 2.17832L20.2017 14.6658L11.862 14.6748L11.8486 2.18726Z" fill="#FF5F00"/>
<path d="M12.3848 8.43047C12.3821 5.89329 13.8093 3.6413 16.0051 2.18277C14.3891 1.12551 12.3499 0.487892 10.126 0.490275C4.8572 0.495921 0.598533 4.05255 0.603237 8.4431C0.607942 12.8336 4.87422 16.3811 10.1429 16.3755C12.3668 16.3731 14.4047 15.7311 16.0185 14.6703C13.8196 13.2386 12.3875 10.9677 12.3848 8.43047Z" fill="#EB001B"/>
<path d="M31.4474 8.40998C31.4521 12.8004 27.1934 16.3572 21.9248 16.3628C19.7008 16.3652 17.6616 15.7276 16.0455 14.6702C18.2678 13.2117 19.6686 10.9598 19.6659 8.42261C19.6632 5.88542 18.231 3.6365 16.0321 2.18268C17.6458 1.12195 19.6838 0.479972 21.9077 0.477589C27.1764 0.471943 31.4427 4.04154 31.4474 8.40998Z" fill="#F79E1B"/>
</g>
<defs>
<clipPath id="clip0_2_1351">
<rect width="30.88" height="20" fill="white" transform="translate(0.592773 0.500488) rotate(-0.0613952)"/>
</clipPath>
</defs>
</svg>
