<svg width="17" height="21" viewBox="0 0 17 21" fill="none" xmlns="http://www.w3.org/2000/svg">
<g clip-path="url(#clip0_2_1358)">
<path d="M14.3915 1.91382C13.4676 0.863021 11.7991 0.413881 9.66509 0.416168L3.47171 0.422805C3.26057 0.422998 3.05642 0.498529 2.89599 0.635809C2.73556 0.77309 2.62938 0.96311 2.59655 1.17169L0.0352731 17.5299C-0.0156396 17.8524 0.234408 18.1442 0.561296 18.1439L4.38487 18.1398L5.33861 12.048L5.30901 12.2387C5.37696 11.8081 5.74483 11.4902 6.18086 11.4897L7.99781 11.4878C11.5672 11.4839 14.3606 10.0311 15.1725 5.8363C15.1966 5.71223 15.2175 5.59148 15.2355 5.47351C15.1324 5.41906 15.1324 5.41906 15.2355 5.47351C15.4769 3.92312 15.231 2.86822 14.3915 1.91382Z" fill="#27346A"/>
<path d="M6.79402 4.92415C6.89847 4.87418 7.01279 4.84826 7.12857 4.84829L11.9841 4.84309C12.559 4.84247 13.0954 4.87932 13.5855 4.95767C13.7227 4.9794 13.8591 5.00536 13.9947 5.03551C14.1868 5.07769 14.3767 5.12936 14.5637 5.19033C14.8047 5.27053 15.0292 5.364 15.2355 5.47351C15.4769 3.92253 15.231 2.86822 14.3915 1.91382C13.4671 0.863021 11.7991 0.413881 9.66508 0.416168L3.47118 0.422805C3.03509 0.423272 2.66444 0.741153 2.59655 1.17169L0.0352728 17.5293C-0.0156393 17.8524 0.234408 18.1438 0.560766 18.1434L4.38487 18.1393L6.36358 5.50342C6.38305 5.37922 6.4324 5.26162 6.50738 5.16071C6.58236 5.05981 6.68073 4.97863 6.79402 4.92415Z" fill="#27346A"/>
<path d="M15.1751 5.83645C14.3632 10.0307 11.5699 11.4841 8.00042 11.4879L6.18294 11.4899C5.74691 11.4903 5.37897 11.8083 5.31169 12.2389L4.12517 19.8133C4.08083 20.0956 4.29938 20.3512 4.58495 20.3509L7.80812 20.3474C7.99276 20.3471 8.17125 20.281 8.31149 20.1609C8.45173 20.0409 8.54452 19.8747 8.57318 19.6923L8.6044 19.528L9.20776 15.6773L9.24667 15.4645C9.27532 15.2821 9.36811 15.1159 9.50834 14.9958C9.64857 14.8757 9.82704 14.8096 10.0117 14.8093L10.494 14.8088C13.6164 14.8055 16.0598 13.5344 16.7703 9.86501C17.0669 8.33157 16.9112 7.05174 16.1214 6.15351C15.8818 5.88145 15.5844 5.65687 15.2381 5.47366C15.2195 5.59223 15.1993 5.71238 15.1751 5.83645Z" fill="#2790C3"/>
<path d="M14.3803 5.13393C14.253 5.09689 14.1244 5.06412 13.9949 5.03566C13.8593 5.006 13.7229 4.98022 13.5858 4.95835C13.0951 4.87947 12.5591 4.84257 11.9837 4.84318L7.12875 4.84838C7.0129 4.84831 6.89852 4.87445 6.7942 4.92484C6.68076 4.97912 6.58226 5.06024 6.50724 5.16118C6.43223 5.26212 6.38295 5.37983 6.36369 5.50411L5.33878 12.0481L5.30919 12.2389C5.37661 11.8083 5.74448 11.4903 6.18057 11.4899L7.99805 11.4879C11.5675 11.4841 14.3607 10.0313 15.1727 5.83645C15.1968 5.71239 15.2171 5.59217 15.2357 5.47367C15.0289 5.36484 14.8049 5.27062 14.5639 5.19101C14.5031 5.17092 14.4419 5.15188 14.3804 5.13393" fill="#1F264F"/>
</g>
<defs>
<clipPath id="clip0_2_1358">
<rect width="16.9583" height="20" fill="white" transform="translate(0.00634766 0.372559) rotate(-0.0613952)"/>
</clipPath>
</defs>
</svg>
