<svg width="46" height="21" viewBox="0 0 46 21" fill="none" xmlns="http://www.w3.org/2000/svg">
<g clip-path="url(#clip0_2_1349)">
<path d="M17.7325 0.807936L11.8674 14.8419L8.03127 14.8461L5.12559 3.65373C4.94941 2.96602 4.79668 2.71303 4.26251 2.42272C3.38937 1.94962 1.94785 1.50783 0.680887 1.2334L0.765889 0.826117L6.94203 0.819499C7.72799 0.818657 8.43627 1.34123 8.61724 2.24718L10.1549 10.3636L13.9194 0.812022L17.7325 0.807936ZM22.9185 0.802379L19.933 14.8333L16.3035 14.8372L19.2894 0.806268L22.9185 0.802379ZM32.7735 10.2395C32.7847 6.53795 27.6511 6.33801 27.6828 4.68412C27.6946 4.1813 28.173 3.64552 29.2212 3.50756C29.7405 3.43981 31.1751 3.38476 32.801 4.13179L33.4336 1.15462C32.5601 0.839767 31.4361 0.537112 30.0384 0.53861C26.4507 0.542454 23.929 2.45077 23.9118 5.18167C23.8905 7.20169 25.7178 8.32552 27.0918 8.99686C28.5071 9.68236 28.982 10.1234 28.9762 10.7375C28.967 11.6787 27.8478 12.0966 26.8069 12.1131C24.9817 12.144 23.9231 11.6229 23.0786 11.2306L22.4232 14.3064C23.2727 14.6946 24.838 15.031 26.4589 15.0465C30.2729 15.0424 32.7654 13.1559 32.7735 10.2395ZM42.2521 14.8096L45.6077 14.806L42.6611 0.781224L39.5652 0.784542C38.8669 0.78529 38.2805 1.19118 38.0208 1.81444L32.5891 14.8197L36.4002 14.8157L37.1539 12.7194L41.8101 12.7144L42.2521 14.8096ZM38.1959 9.84391L40.1012 4.57397L41.2045 9.84068L38.1959 9.84391ZM27.5826 18.6865L26.1078 18.6881L26.1093 20.0605L27.7588 20.0588L27.7592 20.4714L25.6129 20.4737L25.6088 16.6662L27.6706 16.664L27.671 17.0766L26.1061 17.0783L26.1074 18.2813L27.582 18.2797L27.5826 18.6865ZM28.5169 16.4599L29.0137 16.4594L29.018 20.4699L28.5212 20.4704L28.5169 16.4599ZM30.2703 19.1919C30.2823 19.8643 30.7064 20.1405 31.2089 20.14C31.565 20.1396 31.7851 20.0773 31.9661 19.9981L32.0567 20.354C31.8817 20.4331 31.5768 20.5294 31.1416 20.5299C30.3002 20.5308 29.7969 19.9722 29.7961 19.1473C29.7952 18.3227 30.2799 17.678 31.0766 17.6772C31.9748 17.6762 32.2073 18.4558 32.2078 18.9584C32.2079 19.06 32.2022 19.1333 32.1908 19.19L30.2703 19.1919ZM31.7273 18.8345C31.7328 18.524 31.5966 18.0326 31.0373 18.0332C30.5289 18.0337 30.3147 18.4915 30.2754 18.8361L31.7273 18.8345ZM34.9139 20.3676C34.7841 20.43 34.496 20.5265 34.1289 20.5269C33.3042 20.5278 32.7669 19.969 32.766 19.1329C32.7651 18.2911 33.3405 17.6749 34.2331 17.6739C34.5268 17.6736 34.7867 17.7465 34.9224 17.8201L34.8101 18.1986C34.6909 18.1366 34.5046 18.0687 34.2335 18.069C33.6063 18.0697 33.2682 18.539 33.2688 19.1043C33.2695 19.7367 33.6766 20.1261 34.2189 20.1255C34.5013 20.1252 34.6876 20.0573 34.8287 19.9951L34.9139 20.3676ZM36.3047 17.0728L36.3054 17.728L37.017 17.7273L37.0174 18.1055L36.3058 18.1063L36.3074 19.5808C36.3078 19.9201 36.4041 20.1118 36.6808 20.1115C36.8162 20.1114 36.8955 20.1002 36.969 20.0772L36.992 20.4561C36.8959 20.4899 36.7435 20.5239 36.5514 20.5241C36.3196 20.5243 36.1331 20.4454 36.0145 20.3159C35.8787 20.1632 35.822 19.9207 35.8216 19.5986L35.82 18.1068L35.3962 18.1073L35.3958 17.729L35.8196 17.7286L35.8191 17.2201L36.3047 17.0728ZM37.7121 18.5797C37.7118 18.2576 37.7055 17.9809 37.6886 17.7266L38.1237 17.7261L38.1471 18.2682L38.1635 18.2682C38.2877 17.9012 38.5922 17.6691 38.9254 17.6687C38.9764 17.6687 39.0161 17.6744 39.0613 17.6798L39.0618 18.1489C39.0109 18.1374 38.9602 18.1375 38.892 18.1376C38.5422 18.1379 38.2935 18.398 38.2264 18.7712C38.2148 18.8479 38.2092 18.9253 38.2096 19.0028L38.2112 20.4604L37.7141 20.4609L37.7121 18.5797ZM42.1181 19.0662C42.1192 20.0774 41.4133 20.5189 40.7582 20.5196C40.0237 20.5204 39.4471 19.9785 39.4462 19.1145C39.4452 18.2049 40.049 17.6677 40.8004 17.6669C41.5855 17.6661 42.1172 18.2355 42.1181 19.0662ZM39.9544 19.0971C39.9551 19.6959 40.2945 20.1476 40.7803 20.1471C41.255 20.1466 41.6102 19.6996 41.6095 19.0839C41.609 18.6208 41.3768 18.0389 40.7893 18.0396C40.2077 18.0402 39.9539 18.5831 39.9544 19.0971ZM42.8792 18.4612C42.8789 18.1733 42.8727 17.9471 42.8556 17.7214L43.2963 17.7209L43.325 18.1728L43.3363 18.1728C43.4716 17.9183 43.7876 17.6639 44.2396 17.6634C44.6178 17.663 45.2058 17.8883 45.2068 18.8257L45.2085 20.4529L44.7115 20.4534L44.7098 18.8773C44.7093 18.4369 44.5451 18.0696 44.0763 18.0701C43.7542 18.0704 43.5001 18.3024 43.4104 18.5792C43.3876 18.6415 43.3765 18.7261 43.3766 18.811L43.3783 20.4549L42.8813 20.4554L42.8792 18.4612Z" fill="#1A1F71"/>
</g>
<defs>
<clipPath id="clip0_2_1349">
<rect width="44.9167" height="20" fill="white" transform="translate(0.67627 0.570068) rotate(-0.0613952)"/>
</clipPath>
</defs>
</svg>
