<svg width="49" height="21" viewBox="0 0 49 21" fill="none" xmlns="http://www.w3.org/2000/svg">
<g clip-path="url(#clip0_2_1363)">
<path d="M48.8297 10.5696C48.8261 7.16687 47.175 4.48368 44.0249 4.48706C40.8613 4.49045 38.9502 7.17754 38.9538 10.5536C38.9581 14.5544 41.22 16.5723 44.4631 16.5688C46.0448 16.5671 47.2407 16.207 48.144 15.701L48.1412 13.0426C47.2379 13.4955 46.2014 13.7758 44.8855 13.7772C43.5961 13.7786 42.4526 13.3278 42.3047 11.7596L48.8044 11.7526C48.8043 11.5797 48.8301 10.8885 48.8297 10.5696ZM42.2622 9.3139C42.2606 7.81194 43.1771 7.18619 44.0145 7.1853C44.8252 7.18443 45.6899 7.80827 45.6915 9.31023L42.2622 9.3139ZM33.8169 4.498C32.5141 4.49939 31.6774 5.11169 31.2127 5.53761L31.0389 4.71368L28.1148 4.71682L28.1314 20.2149L31.4536 19.507L31.4629 15.7454C31.9418 16.0905 32.6467 16.5815 33.8164 16.5802C36.1957 16.5777 38.3602 14.6614 38.3557 10.4479C38.3383 6.59325 36.1428 4.49551 33.8168 4.498M33.029 13.6569C32.2448 13.6577 31.7792 13.3792 31.4599 13.0339L31.4413 8.1026C31.7865 7.71681 32.2647 7.4505 33.0223 7.44969C34.2319 7.4484 35.0707 8.8032 35.0726 10.5444C35.0745 12.3255 34.2518 13.6556 33.029 13.6569ZM23.5413 3.7248L26.8768 3.00347L26.8739 0.305249L23.5384 1.01331L23.5413 3.7248ZM23.5424 4.73499L26.8787 4.73141L26.8911 16.3617L23.5549 16.3653L23.5424 4.73499ZM19.9681 5.72237L19.7543 4.73905L16.8833 4.74212L16.8957 16.3724L20.2187 16.3688L20.2103 8.48688C20.9933 7.46258 22.3227 7.64723 22.735 7.79296L22.7317 4.73586C22.3062 4.57678 20.7507 4.28602 19.9681 5.72237ZM13.3179 1.86164L10.0755 2.55624L10.0736 13.203C10.0758 15.1703 11.5527 16.6174 13.5199 16.6153C14.6098 16.6141 15.4071 16.4139 15.8454 16.1742L15.8425 13.476C15.4175 13.6492 13.318 14.2629 13.3159 12.2957L13.3108 7.57707L15.8362 7.57437L15.8332 4.74325L13.3078 4.74596L13.3179 1.86164ZM4.33942 8.13164C4.33887 7.61332 4.76398 7.41343 5.46856 7.41267C6.47865 7.41159 7.75496 7.71602 8.76573 8.25989L8.76238 5.13625C7.65874 4.69883 6.56865 4.5272 5.46547 4.52838C2.76715 4.53127 0.974272 5.94216 0.976793 8.29487C0.980724 11.9633 6.03093 11.3731 6.03263 12.9549C6.03328 13.5662 5.50191 13.7662 4.75752 13.767C3.65434 13.7682 2.24489 13.3177 1.12769 12.7075L1.13108 15.871C2.36782 16.4013 3.6175 16.6259 4.76058 16.6247C7.52525 16.6217 9.42453 15.2507 9.42198 12.8714C9.40447 8.91051 4.34102 9.62033 4.33942 8.13164Z" fill="#635BFF"/>
</g>
<defs>
<clipPath id="clip0_2_1363">
<rect width="47.8583" height="20" fill="white" transform="translate(0.964355 0.333008) rotate(-0.0613952)"/>
</clipPath>
</defs>
</svg>
