<svg width="25" height="25" viewBox="0 0 25 25" fill="none" xmlns="http://www.w3.org/2000/svg">
<path d="M4.24542 12.1076L4.24769 14.2256C4.24815 14.7818 4.35819 15.3325 4.57151 15.8462C4.78483 16.3599 5.09726 16.8266 5.49095 17.2195C5.88464 17.6124 6.35188 17.924 6.86598 18.1363C7.38009 18.3487 7.93099 18.4576 8.48723 18.4571L21.1922 18.4434M4.23975 6.8136L16.9447 6.79998C17.5011 6.79926 18.0521 6.90814 18.5663 7.12043C19.0805 7.33271 19.5479 7.64422 19.9417 8.03718C20.3355 8.43013 20.648 8.89682 20.8614 9.41059C21.0747 9.92435 21.1848 10.4751 21.1853 11.0314L21.1875 13.1484" stroke="#222222" stroke-width="1.5" stroke-linecap="round" stroke-linejoin="round"/>
<path d="M18.0114 15.2698L21.1918 18.4424L18.0182 21.6228M7.41769 9.98716L4.23729 6.81357L7.41088 3.63417" stroke="#222222" stroke-width="1.5" stroke-linecap="round" stroke-linejoin="round"/>
</svg>
