<svg width="25" height="25" viewBox="0 0 25 25" fill="none" xmlns="http://www.w3.org/2000/svg">
<path d="M21.233 14.5666L14.8778 20.9354C14.7147 21.0969 14.5311 21.2181 14.3272 21.299C14.1233 21.3799 13.92 21.4205 13.7173 21.4207C13.5147 21.4209 13.313 21.3808 13.1122 21.3003C12.9115 21.2199 12.7293 21.0991 12.5658 20.9379L4.19488 12.6009C4.03673 12.4564 3.91721 12.2838 3.83633 12.0833C3.75544 11.8833 3.71489 11.6727 3.71465 11.4514L3.70781 5.0654C3.70732 4.61606 3.86425 4.23123 4.17857 3.91089C4.49289 3.59055 4.88005 3.43014 5.34005 3.42965L11.7261 3.4228C11.9421 3.42257 12.1518 3.46601 12.3552 3.55313C12.5586 3.64024 12.7344 3.75806 12.8826 3.90656L21.2305 12.2416C21.3973 12.4048 21.5189 12.5883 21.5951 12.7922C21.6713 12.9962 21.7095 13.2018 21.7098 13.4091C21.71 13.6164 21.6722 13.8198 21.5964 14.0192C21.5206 14.2186 21.3995 14.4011 21.233 14.5666ZM14.1641 20.2282L20.5182 13.8594C20.6461 13.7313 20.7099 13.5805 20.7098 13.4072C20.7096 13.2338 20.6454 13.0833 20.5173 12.9554L11.9721 4.44254L5.34115 4.44964C5.16115 4.44984 5.01054 4.50767 4.88933 4.62313C4.76746 4.73859 4.70661 4.88599 4.70681 5.06533L4.71364 11.4453C4.71373 11.5227 4.72681 11.5996 4.75289 11.6763C4.77831 11.7536 4.82305 11.8242 4.88712 11.8881L13.2601 20.2292C13.3882 20.357 13.5386 20.4209 13.7113 20.4207C13.8846 20.4205 14.0355 20.3563 14.1641 20.2282ZM7.25994 7.98559C7.5406 7.98529 7.7785 7.8877 7.97362 7.69283C8.16875 7.49795 8.2665 7.26185 8.26686 6.98451C8.26656 6.70118 8.16897 6.46062 7.97409 6.26282C7.77921 6.06503 7.54311 5.96595 7.26577 5.96558C6.98244 5.96589 6.74188 6.06448 6.54409 6.26136C6.3463 6.45824 6.24756 6.69734 6.24786 6.97867C6.24816 7.26001 6.34675 7.4979 6.54362 7.69236C6.7405 7.88681 6.97927 7.98456 7.25994 7.98559ZM14.3043 16.739L16.7556 14.1864C16.9001 14.0416 17.0103 13.8728 17.086 13.6801C17.1625 13.488 17.2006 13.2759 17.2004 13.0439C17.1999 12.6179 17.0482 12.2468 16.7452 11.9304C16.4422 11.6141 16.0767 11.4561 15.6487 11.4566C15.3227 11.457 15.0014 11.5426 14.6849 11.7136C14.3685 11.8846 14.0451 12.187 13.7149 12.6207C13.3678 12.1804 13.0401 11.8771 12.7319 11.7107C12.4238 11.5444 12.106 11.4614 11.7787 11.4618C11.3507 11.4622 10.9855 11.6209 10.6832 11.9379C10.3815 12.2549 10.2309 12.6261 10.2314 13.0514C10.2316 13.2834 10.2698 13.4957 10.346 13.6883C10.4223 13.8802 10.5328 14.0484 10.6776 14.1929L13.1343 16.7403C13.2965 16.9021 13.4916 16.9829 13.7196 16.9827C13.9476 16.9824 14.1425 16.9012 14.3043 16.739Z" fill="#222222"/>
</svg>
