<svg width="31" height="31" viewBox="0 0 31 31" fill="none" xmlns="http://www.w3.org/2000/svg">
<path d="M15.0645 24.7356C11.9395 24.739 9.17532 23.1419 7.56025 20.7437C7.59508 18.2436 12.5561 16.8633 15.0561 16.8606C17.5561 16.8579 22.5201 18.2276 22.5602 20.7276C21.7353 21.9591 20.6202 22.9689 19.313 23.6678C18.0058 24.3668 16.5468 24.7335 15.0645 24.7356ZM15.0455 6.98563C16.0401 6.98456 16.9943 7.37863 17.6983 8.08114C18.4024 8.78364 18.7985 9.73705 18.7995 10.7316C18.8006 11.7262 18.4065 12.6804 17.704 13.3844C17.0015 14.0884 16.0481 14.4846 15.0536 14.4856C14.059 14.4867 13.1047 14.0926 12.4007 13.3901C11.6967 12.6876 11.3006 11.7342 11.2995 10.7396C11.2985 9.74508 11.6925 8.79083 12.395 8.08682C13.0976 7.3828 14.051 6.98669 15.0455 6.98563ZM15.0415 3.23563C13.4 3.23739 11.7749 3.56245 10.259 4.19226C8.74308 4.82207 7.36608 5.74429 6.20659 6.90626C3.8649 9.25298 2.55135 12.4338 2.5549 15.749C2.55845 19.0642 3.87882 22.2422 6.22553 24.5839C7.38751 25.7434 8.76648 26.6627 10.2837 27.2892C11.801 27.9158 13.4268 28.2374 15.0683 28.2356C18.3835 28.2321 21.5615 26.9117 23.9032 24.565C26.2449 22.2183 27.5584 19.0374 27.5549 15.7222C27.5475 8.80973 21.9165 3.22826 15.0415 3.23563Z" fill="white"/>
</svg>
