<svg width="31" height="31" viewBox="0 0 31 31" fill="none" xmlns="http://www.w3.org/2000/svg">
<path d="M21.3134 23.378C21.9765 23.3773 22.6126 23.64 23.082 24.1083C23.5513 24.5766 23.8154 25.2122 23.8161 25.8753C23.8168 26.5383 23.5541 27.1745 23.0857 27.6438C22.6174 28.1132 21.9818 28.3773 21.3188 28.378C20.6557 28.3787 20.0196 28.116 19.5502 27.6476C19.0809 27.1793 18.8168 26.5437 18.8161 25.8806C18.8146 24.4931 19.9259 23.3795 21.3134 23.378ZM1.29199 3.39941L5.37949 3.39503L6.55717 5.89377L25.0447 5.87396C25.3762 5.87361 25.6943 6.00496 25.9289 6.23913C26.1636 6.4733 26.2956 6.7911 26.296 7.12262C26.2962 7.33512 26.2339 7.54769 26.1467 7.74778L21.6803 15.8401C21.2561 16.603 20.4317 17.1289 19.4942 17.1299L10.1817 17.1399L9.0589 19.1786L9.02156 19.3286C9.02165 19.4115 9.05466 19.491 9.11333 19.5495C9.172 19.6081 9.25152 19.6409 9.3344 19.6408L23.8094 19.6253L23.8121 22.1253L8.81208 22.1414C8.14904 22.1421 7.51287 21.8794 7.04353 21.411C6.57419 20.9427 6.31011 20.3071 6.3094 19.644C6.30893 19.2065 6.42099 18.7939 6.60812 18.4437L8.30483 15.3794L3.79467 5.89673L1.29467 5.89941L1.29199 3.39941ZM8.81342 23.3914C9.47646 23.3907 10.1126 23.6534 10.582 24.1217C11.0513 24.59 11.3154 25.2256 11.3161 25.8887C11.3168 26.5517 11.0541 27.1879 10.5858 27.6572C10.1174 28.1266 9.48182 28.3906 8.81878 28.3914C8.15573 28.3921 7.51957 28.1294 7.05023 27.661C6.58088 27.1927 6.31681 26.5571 6.3161 25.894C6.31461 24.5065 7.42592 23.3929 8.81342 23.3914ZM20.054 14.6293L23.5223 8.3756L7.72235 8.39253L10.679 14.6394L20.054 14.6293Z" fill="white"/>
</svg>
