<svg width="25" height="25" viewBox="0 0 25 25" fill="none" xmlns="http://www.w3.org/2000/svg">
<path d="M12.4209 2.30911C6.9209 2.315 2.42571 6.80982 2.43164 12.3398C2.43699 17.3398 6.10144 21.4859 10.8822 22.2308L10.8747 15.2308L8.33474 15.2335L8.33163 12.3335L10.8716 12.3308L10.8693 10.1208C10.8666 7.61078 12.3551 6.22918 14.6451 6.22673C15.7351 6.22556 16.8753 6.41434 16.8753 6.41434L16.8779 8.88434L15.6179 8.88569C14.3779 8.88702 13.9888 9.65743 13.9896 10.4474L13.9916 12.3274L16.7716 12.3245L16.3247 15.2249L13.9947 15.2274L14.0022 22.2274C16.3583 21.8527 18.5028 20.6481 20.0485 18.831C21.5943 17.0139 22.4395 14.704 22.4316 12.3184C22.4257 6.78839 17.9209 2.30322 12.4209 2.30911Z" fill="white" fill-opacity="0.8"/>
</svg>
