<svg width="31" height="31" viewBox="0 0 31 31" fill="none" xmlns="http://www.w3.org/2000/svg">
<path d="M15.1898 23.2069L15.0649 23.3321L14.9273 23.2072C8.984 17.8261 5.05518 14.2678 5.05131 10.6553C5.04863 8.15528 6.92162 6.27827 9.42162 6.27559C11.3466 6.27353 13.223 7.52152 13.8873 9.22081L16.2123 9.21832C16.873 7.51761 18.7466 6.2656 20.6716 6.26354C23.1716 6.26086 25.0486 8.13385 25.0513 10.6338C25.0552 14.2463 21.134 17.813 15.1898 23.2069ZM20.6689 3.76354C18.4939 3.76587 16.4075 4.7806 15.0467 6.36956C13.6825 4.78352 11.5939 3.77326 9.41894 3.77559C5.56894 3.77972 2.54717 6.79546 2.55131 10.658C2.55636 15.3705 6.8105 19.2284 13.2542 25.059L15.0685 26.7071L16.8792 25.0551C23.3105 19.2107 27.5563 15.3437 27.5513 10.6312C27.5472 6.76867 24.5189 3.75941 20.6689 3.76354Z" fill="white"/>
</svg>
