<svg width="25" height="25" viewBox="0 0 25 25" fill="none" xmlns="http://www.w3.org/2000/svg">
<path d="M8.2209 2.23719L16.6209 2.22819C19.8209 2.22476 22.4237 4.82198 22.4271 8.02197L22.4361 16.422C22.4378 17.9602 21.8283 19.4361 20.7417 20.525C19.6552 21.6139 18.1806 22.2265 16.6423 22.2282L8.24233 22.2372C5.04233 22.2406 2.43954 19.6434 2.43611 16.4434L2.42711 8.0434C2.42547 6.50515 3.03495 5.02924 4.1215 3.94037C5.20804 2.85149 6.68264 2.23884 8.2209 2.23719ZM8.02304 4.23741C7.06826 4.23843 6.15299 4.6187 5.47859 5.29455C4.80418 5.9704 4.42587 6.88648 4.4269 7.84126L4.43633 16.6413C4.43846 18.6313 6.05018 20.2395 8.04018 20.2374L16.8402 20.228C17.795 20.2269 18.7102 19.8467 19.3846 19.1708C20.059 18.495 20.4373 17.5789 20.4363 16.6241L20.4269 7.82412C20.4248 5.83412 18.813 4.22584 16.823 4.22798L8.02304 4.23741ZM17.6746 5.72707C18.0062 5.72671 18.3242 5.85807 18.5589 6.09223C18.7936 6.3264 18.9256 6.6442 18.926 6.97572C18.9263 7.30725 18.795 7.62533 18.5608 7.86C18.3266 8.09467 18.0088 8.22671 17.6773 8.22706C17.3458 8.22742 17.0277 8.09606 16.793 7.86189C16.5584 7.62773 16.4263 7.30992 16.426 6.9784C16.4256 6.64688 16.557 6.3288 16.7911 6.09413C17.0253 5.85946 17.3431 5.72742 17.6746 5.72707ZM12.4263 7.23269C13.7523 7.23127 15.0247 7.75669 15.9634 8.69337C16.902 9.63004 17.4302 10.9012 17.4316 12.2273C17.433 13.5534 16.9076 14.8257 15.9709 15.7644C15.0343 16.7031 13.763 17.2313 12.437 17.2327C11.1109 17.2341 9.83855 16.7087 8.89986 15.772C7.96118 14.8353 7.43303 13.5641 7.43161 12.238C7.43019 10.912 7.95561 9.63963 8.89229 8.70094C9.82896 7.76226 11.1002 7.23411 12.4263 7.23269ZM12.4284 9.23269C11.6327 9.23354 10.87 9.55043 10.308 10.1136C9.74601 10.6769 9.43076 11.4403 9.43161 12.2359C9.43246 13.0316 9.74935 13.7943 10.3126 14.3563C10.8758 14.9183 11.6392 15.2335 12.4348 15.2327C13.2305 15.2318 13.9932 14.9149 14.5552 14.3517C15.1172 13.7885 15.4325 13.0251 15.4316 12.2295C15.4308 11.4338 15.1139 10.6711 14.5507 10.1091C13.9874 9.54709 13.224 9.23184 12.4284 9.23269Z" fill="white" fill-opacity="0.8"/>
</svg>
