<svg width="31" height="31" viewBox="0 0 31 31" fill="none" xmlns="http://www.w3.org/2000/svg">
<path d="M12.5781 3.96297C14.733 3.96066 16.8005 4.81447 18.3259 6.33657C19.8513 7.85867 20.7095 9.92438 20.7118 12.0793C20.714 14.0918 19.9785 15.9425 18.7675 17.3688L19.1054 17.706L20.0928 17.7049L26.3495 23.9482L24.4766 25.8252L18.2199 19.5819L18.2188 18.5944L17.8809 18.2573C16.4077 19.517 14.5338 20.2103 12.5955 20.213C10.4407 20.2153 8.37311 19.3615 6.84774 17.8394C5.32238 16.3173 4.46414 14.2516 4.46183 12.0967C4.45952 9.94179 5.31333 7.87425 6.83543 6.34889C8.35753 4.82352 10.4232 3.96528 12.5781 3.96297ZM12.5808 6.46297C9.4558 6.46632 6.95848 8.969 6.96183 12.094C6.96518 15.219 9.46786 17.7163 12.5929 17.713C15.7179 17.7096 18.2152 15.2069 18.2118 12.0819C18.2085 8.95694 15.7058 6.45962 12.5808 6.46297Z" fill="white"/>
</svg>
