<svg width="25" height="25" viewBox="0 0 25 25" fill="none" xmlns="http://www.w3.org/2000/svg">
<path d="M12.4479 6.8985C13.111 6.89779 13.7471 7.1605 14.2165 7.62884C14.6858 8.09718 14.9499 8.73278 14.9506 9.39582C14.951 9.72413 14.8866 10.0493 14.7613 10.3527C14.636 10.6562 14.4522 10.932 14.2203 11.1644C13.9884 11.3968 13.713 11.5812 13.4098 11.7072C13.1066 11.8331 12.7816 11.8981 12.4533 11.8985C11.7902 11.8992 11.1541 11.6365 10.6847 11.1682C10.2154 10.6998 9.95132 10.0642 9.95061 9.40118C9.9499 8.73814 10.2126 8.10197 10.681 7.63263C11.1493 7.16329 11.7849 6.89921 12.4479 6.8985ZM12.4431 2.39851C14.2996 2.39652 16.0809 3.13211 17.3951 4.44345C18.7092 5.7548 19.4486 7.53448 19.4506 9.391C19.4562 14.641 12.4645 22.3985 12.4645 22.3985C12.4645 22.3985 5.45624 14.656 5.45062 9.406C5.44863 7.54949 6.18422 5.76822 7.49556 4.45406C8.80691 3.1399 10.5866 2.40049 12.4431 2.39851ZM12.4453 4.3985C11.1192 4.39992 9.84797 4.92807 8.91129 5.86676C7.97462 6.80544 7.44919 8.07778 7.45061 9.40386C7.45169 10.4039 7.45383 12.4039 12.461 19.1085C17.4538 12.3931 17.4517 10.3931 17.4506 9.39314C17.4492 8.06706 16.921 6.79586 15.9824 5.85918C15.0437 4.9225 13.7713 4.39708 12.4453 4.3985Z" fill="white" fill-opacity="0.8"/>
</svg>
