<svg width="25" height="25" viewBox="0 0 25 25" fill="none" xmlns="http://www.w3.org/2000/svg">
<path d="M22.884 6.14848C22.1144 6.49931 21.2847 6.73019 20.4248 6.84112C21.3042 6.31017 21.9833 5.46945 22.3022 4.4591C21.4728 4.95999 20.5531 5.31098 19.5834 5.51202C18.7924 4.65286 17.6819 4.15405 16.4219 4.1554C14.0719 4.15792 12.154 6.07998 12.1565 8.44998C12.1569 8.78998 12.1972 9.11993 12.2676 9.42986C8.70736 9.25367 5.53553 7.54707 3.42276 4.95933C3.05344 5.58973 2.84423 6.32995 2.84506 7.10995C2.84666 8.59995 3.59807 9.91915 4.75888 10.6679C4.04888 10.6687 3.38866 10.4694 2.80834 10.17L2.80838 10.2C2.8106 12.28 4.29247 14.0184 6.25288 14.4063C5.62391 14.5799 4.96313 14.6046 4.32296 14.4784C4.59548 15.3306 5.12821 16.0759 5.84626 16.6097C6.56431 17.1434 7.43158 17.4387 8.32615 17.4541C6.81111 18.6562 4.93214 19.3071 2.99813 19.2998C2.65813 19.3002 2.3181 19.2805 1.97806 19.2409C3.87937 20.4589 6.14013 21.1664 8.56013 21.1638C16.4401 21.1554 20.7631 14.6108 20.757 8.94076C20.7568 8.75076 20.7566 8.57076 20.7464 8.38077C21.5858 7.77987 22.305 7.0191 22.884 6.14848Z" fill="white" fill-opacity="0.8"/>
</svg>
