<svg width="52" height="51" viewBox="0 0 52 51" fill="none" xmlns="http://www.w3.org/2000/svg">
<rect x="0.645294" width="51" height="51" rx="25.5" fill="#F3F3F3"/>
<g clip-path="url(#clip0_1_568)">
<path d="M26.1497 20.3449C23.2537 20.3449 20.9177 22.6443 20.9177 25.4952C20.9177 28.346 23.2537 30.6454 26.1497 30.6454C29.0458 30.6454 31.3818 28.346 31.3818 25.4952C31.3818 22.6443 29.0458 20.3449 26.1497 20.3449ZM26.1497 28.8435C24.2782 28.8435 22.7482 27.3419 22.7482 25.4952C22.7482 23.6484 24.2737 22.1468 26.1497 22.1468C28.0258 22.1468 29.5512 23.6484 29.5512 25.4952C29.5512 27.3419 28.0212 28.8435 26.1497 28.8435V28.8435ZM32.8162 20.1342C32.8162 20.8021 32.2697 21.3355 31.5958 21.3355C30.9173 21.3355 30.3754 20.7976 30.3754 20.1342C30.3754 19.4708 30.9219 18.9329 31.5958 18.9329C32.2697 18.9329 32.8162 19.4708 32.8162 20.1342ZM36.2814 21.3534C36.204 19.7442 35.8306 18.3188 34.633 17.1444C33.44 15.97 31.992 15.6025 30.3572 15.5218C28.6724 15.4276 23.6225 15.4276 21.9377 15.5218C20.3075 15.598 18.8595 15.9655 17.6619 17.1399C16.4643 18.3143 16.0955 19.7397 16.0135 21.3489C15.9179 23.0074 15.9179 27.9784 16.0135 29.6369C16.0909 31.2461 16.4643 32.6715 17.6619 33.8459C18.8595 35.0203 20.303 35.3878 21.9377 35.4685C23.6225 35.5627 28.6724 35.5627 30.3572 35.4685C31.992 35.3923 33.44 35.0248 34.633 33.8459C35.8261 32.6715 36.1995 31.2461 36.2814 29.6369C36.377 27.9784 36.377 23.0119 36.2814 21.3534V21.3534ZM34.1048 31.4164C33.7496 32.295 33.062 32.9718 32.165 33.3259C30.8217 33.8504 27.6342 33.7294 26.1497 33.7294C24.6653 33.7294 21.4732 33.8459 20.1345 33.3259C19.242 32.9763 18.5544 32.2995 18.1947 31.4164C17.6619 30.0941 17.7848 26.9564 17.7848 25.4952C17.7848 24.0339 17.6664 20.8917 18.1947 19.5739C18.5498 18.6953 19.2374 18.0185 20.1345 17.6644C21.4778 17.1399 24.6653 17.2609 26.1497 17.2609C27.6342 17.2609 30.8262 17.1444 32.165 17.6644C33.0575 18.014 33.7451 18.6908 34.1048 19.5739C34.6376 20.8962 34.5146 24.0339 34.5146 25.4952C34.5146 26.9564 34.6376 30.0986 34.1048 31.4164Z" fill="black"/>
</g>
<defs>
<clipPath id="clip0_1_568">
<rect width="20.4" height="22.95" fill="white" transform="translate(15.9453 14.0249)"/>
</clipPath>
</defs>
</svg>
