<svg width="25" height="25" viewBox="0 0 25 25" fill="none" xmlns="http://www.w3.org/2000/svg">
<g clip-path="url(#clip0_2_439)">
<path d="M11.2436 0.989847C11.1402 0.928195 11.022 0.895708 10.9015 0.895837C10.7811 0.895966 10.663 0.928706 10.5596 0.99058C10.4742 1.05841 10.4166 1.15521 10.3978 1.26265C10.379 1.37008 10.4002 1.4807 10.4574 1.57355C12.5647 5.21072 13.0141 10.1697 10.1438 12.907C9.03848 11.9797 8.16048 10.8112 7.57732 9.4915C6.51588 10.0825 5.63655 10.9528 5.03478 12.0082C4.433 13.0636 4.13176 14.2636 4.16374 15.478C4.20836 16.5487 4.46669 17.5997 4.9235 18.5691C5.38032 19.5385 6.02641 20.4068 6.82376 21.1228C7.6211 21.8388 8.5536 22.3881 9.56638 22.7384C10.5792 23.0887 11.6518 23.2329 12.7211 23.1626C18.2257 23.1567 21.078 19.7353 21.2603 15.4597C21.4777 10.3303 17.8298 4.02565 11.2436 0.989847Z" stroke="#222222" stroke-width="1.71429" stroke-linecap="round" stroke-linejoin="round"/>
</g>
<defs>
<clipPath id="clip0_2_439">
<rect width="24" height="24" fill="white" transform="translate(0.700684 0.0496826) rotate(-0.0613952)"/>
</clipPath>
</defs>
</svg>
